<mxfile host="Electron" modified="2024-02-26T04:27:45.253Z" agent="Mozilla/5.0 (Windows NT 10.0; Win64; x64) AppleWebKit/537.36 (KHTML, like Gecko) draw.io/23.1.5 Chrome/120.0.6099.109 Electron/28.1.0 Safari/537.36" etag="5Kr3115TqKp0dod_3Y0k" version="23.1.5" type="device">
  <diagram name="Страница — 1" id="9ttpLuOfrCiaNsQsGalc">
    <mxGraphModel dx="2261" dy="844" grid="1" gridSize="10" guides="1" tooltips="1" connect="1" arrows="1" fold="1" page="1" pageScale="1" pageWidth="827" pageHeight="1169" math="0" shadow="0">
      <root>
        <mxCell id="0" />
        <mxCell id="1" parent="0" />
        <mxCell id="GC4DBZCwsw4iifirCBvd-6" value="&lt;div&gt;#include &amp;lt;iostream&amp;gt;&lt;/div&gt;&lt;div&gt;using namespace std;&lt;/div&gt;&lt;div&gt;int IterationsCounter = 0;&lt;span style=&quot;background-color: initial;&quot;&gt;&amp;nbsp;&lt;/span&gt;&lt;/div&gt;" style="rounded=0;whiteSpace=wrap;html=1;" parent="1" vertex="1">
          <mxGeometry x="330" width="160" height="130" as="geometry" />
        </mxCell>
        <mxCell id="GC4DBZCwsw4iifirCBvd-7" value="начало" style="ellipse;whiteSpace=wrap;html=1;" parent="1" vertex="1">
          <mxGeometry x="60" y="140" width="120" height="20" as="geometry" />
        </mxCell>
        <mxCell id="GC4DBZCwsw4iifirCBvd-9" value="" style="endArrow=none;html=1;rounded=0;" parent="1" edge="1">
          <mxGeometry width="50" height="50" relative="1" as="geometry">
            <mxPoint x="120" y="240" as="sourcePoint" />
            <mxPoint x="190" y="240" as="targetPoint" />
          </mxGeometry>
        </mxCell>
        <mxCell id="GC4DBZCwsw4iifirCBvd-10" value="&lt;div&gt;void setQueen(int **board, int row, int column, int boardSize)&amp;nbsp;&lt;span style=&quot;background-color: initial;&quot;&gt;{&lt;/span&gt;&lt;/div&gt;" style="rounded=0;whiteSpace=wrap;html=1;" parent="1" vertex="1">
          <mxGeometry x="190" y="210" width="160" height="60" as="geometry" />
        </mxCell>
        <mxCell id="GC4DBZCwsw4iifirCBvd-11" value="" style="endArrow=classic;html=1;rounded=0;entryX=0.5;entryY=0;entryDx=0;entryDy=0;" parent="1" target="GC4DBZCwsw4iifirCBvd-12" edge="1">
          <mxGeometry width="50" height="50" relative="1" as="geometry">
            <mxPoint x="119.71000000000001" y="160" as="sourcePoint" />
            <mxPoint x="120" y="320" as="targetPoint" />
          </mxGeometry>
        </mxCell>
        <mxCell id="GC4DBZCwsw4iifirCBvd-15" style="edgeStyle=orthogonalEdgeStyle;rounded=0;orthogonalLoop=1;jettySize=auto;html=1;entryX=0.5;entryY=0;entryDx=0;entryDy=0;" parent="1" source="GC4DBZCwsw4iifirCBvd-12" target="GC4DBZCwsw4iifirCBvd-13" edge="1">
          <mxGeometry relative="1" as="geometry" />
        </mxCell>
        <mxCell id="GC4DBZCwsw4iifirCBvd-12" value="for (int x = 0; x &amp;lt; boardSize; x++)" style="shape=hexagon;perimeter=hexagonPerimeter2;whiteSpace=wrap;html=1;fixedSize=1;" parent="1" vertex="1">
          <mxGeometry x="20" y="315" width="200" height="30" as="geometry" />
        </mxCell>
        <mxCell id="GC4DBZCwsw4iifirCBvd-17" style="edgeStyle=orthogonalEdgeStyle;rounded=0;orthogonalLoop=1;jettySize=auto;html=1;entryX=0.5;entryY=0;entryDx=0;entryDy=0;" parent="1" source="GC4DBZCwsw4iifirCBvd-13" target="GC4DBZCwsw4iifirCBvd-16" edge="1">
          <mxGeometry relative="1" as="geometry" />
        </mxCell>
        <mxCell id="GC4DBZCwsw4iifirCBvd-13" value="board[x][column]++;&amp;nbsp;" style="rounded=0;whiteSpace=wrap;html=1;" parent="1" vertex="1">
          <mxGeometry x="60" y="380" width="120" height="20" as="geometry" />
        </mxCell>
        <mxCell id="GC4DBZCwsw4iifirCBvd-19" style="edgeStyle=orthogonalEdgeStyle;rounded=0;orthogonalLoop=1;jettySize=auto;html=1;entryX=0.5;entryY=0;entryDx=0;entryDy=0;" parent="1" source="GC4DBZCwsw4iifirCBvd-16" target="GC4DBZCwsw4iifirCBvd-18" edge="1">
          <mxGeometry relative="1" as="geometry" />
        </mxCell>
        <mxCell id="GC4DBZCwsw4iifirCBvd-16" value="&amp;nbsp;board[row][x]++;" style="rounded=0;whiteSpace=wrap;html=1;" parent="1" vertex="1">
          <mxGeometry x="60" y="420" width="120" height="20" as="geometry" />
        </mxCell>
        <mxCell id="GC4DBZCwsw4iifirCBvd-21" style="edgeStyle=orthogonalEdgeStyle;rounded=0;orthogonalLoop=1;jettySize=auto;html=1;entryX=0.5;entryY=0;entryDx=0;entryDy=0;" parent="1" source="GC4DBZCwsw4iifirCBvd-18" target="GC4DBZCwsw4iifirCBvd-20" edge="1">
          <mxGeometry relative="1" as="geometry" />
        </mxCell>
        <mxCell id="GC4DBZCwsw4iifirCBvd-18" value="&lt;div&gt;int diagonal = column - row + x;&lt;/div&gt;" style="rounded=0;whiteSpace=wrap;html=1;" parent="1" vertex="1">
          <mxGeometry x="30" y="460" width="180" height="20" as="geometry" />
        </mxCell>
        <mxCell id="GC4DBZCwsw4iifirCBvd-20" value="if (diagonal &amp;gt;= 0 &amp;amp;&amp;amp; diagonal &amp;lt; boardSize)" style="rhombus;whiteSpace=wrap;html=1;" parent="1" vertex="1">
          <mxGeometry x="-10" y="520" width="260" height="80" as="geometry" />
        </mxCell>
        <mxCell id="GC4DBZCwsw4iifirCBvd-22" value="" style="endArrow=none;html=1;rounded=0;" parent="1" edge="1">
          <mxGeometry width="50" height="50" relative="1" as="geometry">
            <mxPoint x="-40" y="560" as="sourcePoint" />
            <mxPoint x="-10" y="559.71" as="targetPoint" />
          </mxGeometry>
        </mxCell>
        <mxCell id="GC4DBZCwsw4iifirCBvd-23" value="" style="endArrow=classic;html=1;rounded=0;" parent="1" edge="1">
          <mxGeometry width="50" height="50" relative="1" as="geometry">
            <mxPoint x="-40" y="560" as="sourcePoint" />
            <mxPoint x="-40" y="600" as="targetPoint" />
          </mxGeometry>
        </mxCell>
        <mxCell id="GC4DBZCwsw4iifirCBvd-24" value="board[x][diagonal]++;" style="rounded=0;whiteSpace=wrap;html=1;" parent="1" vertex="1">
          <mxGeometry x="-100" y="600" width="120" height="20" as="geometry" />
        </mxCell>
        <mxCell id="GC4DBZCwsw4iifirCBvd-25" value="1" style="text;html=1;align=center;verticalAlign=middle;whiteSpace=wrap;rounded=0;" parent="1" vertex="1">
          <mxGeometry x="-30" y="530" width="50" height="30" as="geometry" />
        </mxCell>
        <mxCell id="GC4DBZCwsw4iifirCBvd-26" value="" style="endArrow=none;html=1;rounded=0;" parent="1" edge="1">
          <mxGeometry width="50" height="50" relative="1" as="geometry">
            <mxPoint x="-40" y="640" as="sourcePoint" />
            <mxPoint x="-40" y="620" as="targetPoint" />
          </mxGeometry>
        </mxCell>
        <mxCell id="GC4DBZCwsw4iifirCBvd-27" value="" style="endArrow=none;html=1;rounded=0;" parent="1" edge="1">
          <mxGeometry width="50" height="50" relative="1" as="geometry">
            <mxPoint x="250" y="559.43" as="sourcePoint" />
            <mxPoint x="280" y="559" as="targetPoint" />
          </mxGeometry>
        </mxCell>
        <mxCell id="GC4DBZCwsw4iifirCBvd-28" value="" style="endArrow=none;html=1;rounded=0;" parent="1" edge="1">
          <mxGeometry width="50" height="50" relative="1" as="geometry">
            <mxPoint x="280" y="640" as="sourcePoint" />
            <mxPoint x="280" y="560" as="targetPoint" />
          </mxGeometry>
        </mxCell>
        <mxCell id="GC4DBZCwsw4iifirCBvd-29" value="" style="endArrow=none;html=1;rounded=0;" parent="1" edge="1">
          <mxGeometry width="50" height="50" relative="1" as="geometry">
            <mxPoint x="-40" y="640" as="sourcePoint" />
            <mxPoint x="280" y="640" as="targetPoint" />
          </mxGeometry>
        </mxCell>
        <mxCell id="GC4DBZCwsw4iifirCBvd-30" value="0" style="text;html=1;align=center;verticalAlign=middle;whiteSpace=wrap;rounded=0;" parent="1" vertex="1">
          <mxGeometry x="220" y="530" width="60" height="30" as="geometry" />
        </mxCell>
        <mxCell id="GC4DBZCwsw4iifirCBvd-31" value="{" style="text;html=1;align=center;verticalAlign=middle;whiteSpace=wrap;rounded=0;" parent="1" vertex="1">
          <mxGeometry x="-60" y="570" width="60" height="30" as="geometry" />
        </mxCell>
        <mxCell id="GC4DBZCwsw4iifirCBvd-32" value="}" style="text;html=1;align=center;verticalAlign=middle;whiteSpace=wrap;rounded=0;" parent="1" vertex="1">
          <mxGeometry x="-60" y="610" width="60" height="30" as="geometry" />
        </mxCell>
        <mxCell id="GC4DBZCwsw4iifirCBvd-33" value="" style="endArrow=classic;html=1;rounded=0;" parent="1" edge="1">
          <mxGeometry width="50" height="50" relative="1" as="geometry">
            <mxPoint x="119.71000000000001" y="640" as="sourcePoint" />
            <mxPoint x="120" y="680" as="targetPoint" />
          </mxGeometry>
        </mxCell>
        <mxCell id="GC4DBZCwsw4iifirCBvd-50" style="edgeStyle=orthogonalEdgeStyle;rounded=0;orthogonalLoop=1;jettySize=auto;html=1;entryX=0.5;entryY=0;entryDx=0;entryDy=0;" parent="1" source="GC4DBZCwsw4iifirCBvd-34" target="GC4DBZCwsw4iifirCBvd-44" edge="1">
          <mxGeometry relative="1" as="geometry" />
        </mxCell>
        <mxCell id="GC4DBZCwsw4iifirCBvd-34" value="diagonal = column + row - x;" style="rounded=0;whiteSpace=wrap;html=1;" parent="1" vertex="1">
          <mxGeometry x="40" y="680" width="160" height="20" as="geometry" />
        </mxCell>
        <mxCell id="GC4DBZCwsw4iifirCBvd-44" value="if (diagonal &amp;gt;= 0 &amp;amp;&amp;amp; diagonal &amp;lt; boardSize)" style="rhombus;whiteSpace=wrap;html=1;" parent="1" vertex="1">
          <mxGeometry x="-10.57" y="730" width="260" height="80" as="geometry" />
        </mxCell>
        <mxCell id="GC4DBZCwsw4iifirCBvd-45" value="" style="endArrow=none;html=1;rounded=0;" parent="1" edge="1">
          <mxGeometry width="50" height="50" relative="1" as="geometry">
            <mxPoint x="-40.57" y="770" as="sourcePoint" />
            <mxPoint x="-10.57" y="769.71" as="targetPoint" />
          </mxGeometry>
        </mxCell>
        <mxCell id="GC4DBZCwsw4iifirCBvd-46" value="" style="endArrow=classic;html=1;rounded=0;" parent="1" edge="1">
          <mxGeometry width="50" height="50" relative="1" as="geometry">
            <mxPoint x="-40.57" y="770" as="sourcePoint" />
            <mxPoint x="-40.57" y="810" as="targetPoint" />
          </mxGeometry>
        </mxCell>
        <mxCell id="GC4DBZCwsw4iifirCBvd-47" value="board[x][diagonal]++;" style="rounded=0;whiteSpace=wrap;html=1;" parent="1" vertex="1">
          <mxGeometry x="-100.57" y="810" width="120" height="20" as="geometry" />
        </mxCell>
        <mxCell id="GC4DBZCwsw4iifirCBvd-48" value="" style="endArrow=none;html=1;rounded=0;" parent="1" edge="1">
          <mxGeometry width="50" height="50" relative="1" as="geometry">
            <mxPoint x="279.43" y="850" as="sourcePoint" />
            <mxPoint x="279.43" y="770" as="targetPoint" />
          </mxGeometry>
        </mxCell>
        <mxCell id="GC4DBZCwsw4iifirCBvd-49" value="" style="endArrow=none;html=1;rounded=0;" parent="1" edge="1">
          <mxGeometry width="50" height="50" relative="1" as="geometry">
            <mxPoint x="-40.57" y="850" as="sourcePoint" />
            <mxPoint x="279.43" y="850" as="targetPoint" />
          </mxGeometry>
        </mxCell>
        <mxCell id="GC4DBZCwsw4iifirCBvd-51" value="" style="endArrow=none;html=1;rounded=0;" parent="1" edge="1">
          <mxGeometry width="50" height="50" relative="1" as="geometry">
            <mxPoint x="-40.28999999999999" y="830" as="sourcePoint" />
            <mxPoint x="-40" y="850" as="targetPoint" />
          </mxGeometry>
        </mxCell>
        <mxCell id="GC4DBZCwsw4iifirCBvd-52" value="" style="endArrow=none;html=1;rounded=0;" parent="1" edge="1">
          <mxGeometry width="50" height="50" relative="1" as="geometry">
            <mxPoint x="249.43" y="769.71" as="sourcePoint" />
            <mxPoint x="280" y="770" as="targetPoint" />
          </mxGeometry>
        </mxCell>
        <mxCell id="GC4DBZCwsw4iifirCBvd-53" value="1" style="text;html=1;align=center;verticalAlign=middle;whiteSpace=wrap;rounded=0;" parent="1" vertex="1">
          <mxGeometry x="-40" y="740" width="60" height="30" as="geometry" />
        </mxCell>
        <mxCell id="GC4DBZCwsw4iifirCBvd-54" value="{" style="text;html=1;align=center;verticalAlign=middle;whiteSpace=wrap;rounded=0;" parent="1" vertex="1">
          <mxGeometry x="-60" y="770" width="60" height="30" as="geometry" />
        </mxCell>
        <mxCell id="GC4DBZCwsw4iifirCBvd-55" value="}" style="text;html=1;align=center;verticalAlign=middle;whiteSpace=wrap;rounded=0;" parent="1" vertex="1">
          <mxGeometry x="-60" y="820" width="60" height="30" as="geometry" />
        </mxCell>
        <mxCell id="GC4DBZCwsw4iifirCBvd-56" value="0" style="text;html=1;align=center;verticalAlign=middle;whiteSpace=wrap;rounded=0;" parent="1" vertex="1">
          <mxGeometry x="230" y="740" width="60" height="30" as="geometry" />
        </mxCell>
        <mxCell id="GC4DBZCwsw4iifirCBvd-57" value="" style="endArrow=none;html=1;rounded=0;" parent="1" edge="1">
          <mxGeometry width="50" height="50" relative="1" as="geometry">
            <mxPoint x="120" y="920" as="sourcePoint" />
            <mxPoint x="119.71000000000001" y="850" as="targetPoint" />
          </mxGeometry>
        </mxCell>
        <mxCell id="GC4DBZCwsw4iifirCBvd-58" value="}" style="text;html=1;align=center;verticalAlign=middle;whiteSpace=wrap;rounded=0;" parent="1" vertex="1">
          <mxGeometry x="110" y="850" width="60" height="30" as="geometry" />
        </mxCell>
        <mxCell id="GC4DBZCwsw4iifirCBvd-59" value="" style="endArrow=none;html=1;rounded=0;" parent="1" edge="1">
          <mxGeometry width="50" height="50" relative="1" as="geometry">
            <mxPoint x="-120" y="920" as="sourcePoint" />
            <mxPoint x="120" y="920" as="targetPoint" />
          </mxGeometry>
        </mxCell>
        <mxCell id="GC4DBZCwsw4iifirCBvd-60" value="" style="endArrow=none;html=1;rounded=0;" parent="1" edge="1">
          <mxGeometry width="50" height="50" relative="1" as="geometry">
            <mxPoint x="-120" y="920" as="sourcePoint" />
            <mxPoint x="-120" y="330" as="targetPoint" />
          </mxGeometry>
        </mxCell>
        <mxCell id="GC4DBZCwsw4iifirCBvd-61" value="" style="endArrow=classic;html=1;rounded=0;" parent="1" edge="1">
          <mxGeometry width="50" height="50" relative="1" as="geometry">
            <mxPoint x="-120" y="330" as="sourcePoint" />
            <mxPoint x="19.43" y="329.71" as="targetPoint" />
          </mxGeometry>
        </mxCell>
        <mxCell id="GC4DBZCwsw4iifirCBvd-62" value="1" style="text;html=1;align=center;verticalAlign=middle;whiteSpace=wrap;rounded=0;" parent="1" vertex="1">
          <mxGeometry x="70" y="345" width="60" height="30" as="geometry" />
        </mxCell>
        <mxCell id="GC4DBZCwsw4iifirCBvd-63" value="{" style="text;html=1;align=center;verticalAlign=middle;whiteSpace=wrap;rounded=0;" parent="1" vertex="1">
          <mxGeometry x="110" y="345" width="60" height="30" as="geometry" />
        </mxCell>
        <mxCell id="GC4DBZCwsw4iifirCBvd-64" value="" style="endArrow=none;html=1;rounded=0;" parent="1" edge="1">
          <mxGeometry width="50" height="50" relative="1" as="geometry">
            <mxPoint x="220" y="329.58" as="sourcePoint" />
            <mxPoint x="320" y="330" as="targetPoint" />
          </mxGeometry>
        </mxCell>
        <mxCell id="GC4DBZCwsw4iifirCBvd-65" value="0" style="text;html=1;align=center;verticalAlign=middle;whiteSpace=wrap;rounded=0;" parent="1" vertex="1">
          <mxGeometry x="190" y="300" width="60" height="30" as="geometry" />
        </mxCell>
        <mxCell id="GC4DBZCwsw4iifirCBvd-66" value="" style="endArrow=classic;html=1;rounded=0;" parent="1" edge="1">
          <mxGeometry width="50" height="50" relative="1" as="geometry">
            <mxPoint x="320" y="330" as="sourcePoint" />
            <mxPoint x="320" y="360" as="targetPoint" />
          </mxGeometry>
        </mxCell>
        <mxCell id="GC4DBZCwsw4iifirCBvd-67" value="board[row][column] = -1;" style="rounded=0;whiteSpace=wrap;html=1;" parent="1" vertex="1">
          <mxGeometry x="250" y="360" width="140" height="20" as="geometry" />
        </mxCell>
        <mxCell id="GC4DBZCwsw4iifirCBvd-68" value="" style="endArrow=classic;html=1;rounded=0;" parent="1" edge="1">
          <mxGeometry width="50" height="50" relative="1" as="geometry">
            <mxPoint x="319.76" y="380" as="sourcePoint" />
            <mxPoint x="320" y="400" as="targetPoint" />
          </mxGeometry>
        </mxCell>
        <mxCell id="GC4DBZCwsw4iifirCBvd-69" value="конец" style="ellipse;whiteSpace=wrap;html=1;" parent="1" vertex="1">
          <mxGeometry x="260" y="400" width="120" height="20" as="geometry" />
        </mxCell>
        <mxCell id="GC4DBZCwsw4iifirCBvd-70" value="}" style="text;html=1;align=center;verticalAlign=middle;whiteSpace=wrap;rounded=0;" parent="1" vertex="1">
          <mxGeometry x="300" y="420" width="60" height="30" as="geometry" />
        </mxCell>
        <mxCell id="GC4DBZCwsw4iifirCBvd-71" value="начало" style="ellipse;whiteSpace=wrap;html=1;" parent="1" vertex="1">
          <mxGeometry x="610" y="150" width="120" height="20" as="geometry" />
        </mxCell>
        <mxCell id="GC4DBZCwsw4iifirCBvd-72" value="" style="endArrow=none;html=1;rounded=0;" parent="1" edge="1">
          <mxGeometry width="50" height="50" relative="1" as="geometry">
            <mxPoint x="670" y="250" as="sourcePoint" />
            <mxPoint x="740" y="250" as="targetPoint" />
          </mxGeometry>
        </mxCell>
        <mxCell id="GC4DBZCwsw4iifirCBvd-73" value="&lt;div&gt;void removeQueen(int** board, int row, int column, int boardSize)&amp;nbsp;&lt;span style=&quot;background-color: initial;&quot;&gt;{&lt;/span&gt;&lt;/div&gt;" style="rounded=0;whiteSpace=wrap;html=1;" parent="1" vertex="1">
          <mxGeometry x="740" y="220" width="160" height="60" as="geometry" />
        </mxCell>
        <mxCell id="GC4DBZCwsw4iifirCBvd-74" value="" style="endArrow=classic;html=1;rounded=0;entryX=0.5;entryY=0;entryDx=0;entryDy=0;" parent="1" target="GC4DBZCwsw4iifirCBvd-76" edge="1">
          <mxGeometry width="50" height="50" relative="1" as="geometry">
            <mxPoint x="669.71" y="170" as="sourcePoint" />
            <mxPoint x="670" y="330" as="targetPoint" />
          </mxGeometry>
        </mxCell>
        <mxCell id="GC4DBZCwsw4iifirCBvd-75" style="edgeStyle=orthogonalEdgeStyle;rounded=0;orthogonalLoop=1;jettySize=auto;html=1;entryX=0.5;entryY=0;entryDx=0;entryDy=0;" parent="1" source="GC4DBZCwsw4iifirCBvd-76" target="GC4DBZCwsw4iifirCBvd-78" edge="1">
          <mxGeometry relative="1" as="geometry" />
        </mxCell>
        <mxCell id="GC4DBZCwsw4iifirCBvd-76" value="for (int x = 0; x &amp;lt; boardSize; x++)" style="shape=hexagon;perimeter=hexagonPerimeter2;whiteSpace=wrap;html=1;fixedSize=1;" parent="1" vertex="1">
          <mxGeometry x="570" y="325" width="200" height="30" as="geometry" />
        </mxCell>
        <mxCell id="GC4DBZCwsw4iifirCBvd-77" style="edgeStyle=orthogonalEdgeStyle;rounded=0;orthogonalLoop=1;jettySize=auto;html=1;entryX=0.5;entryY=0;entryDx=0;entryDy=0;" parent="1" source="GC4DBZCwsw4iifirCBvd-78" target="GC4DBZCwsw4iifirCBvd-80" edge="1">
          <mxGeometry relative="1" as="geometry" />
        </mxCell>
        <mxCell id="GC4DBZCwsw4iifirCBvd-78" value="board[x][column]--;&amp;nbsp;" style="rounded=0;whiteSpace=wrap;html=1;" parent="1" vertex="1">
          <mxGeometry x="610" y="390" width="120" height="20" as="geometry" />
        </mxCell>
        <mxCell id="GC4DBZCwsw4iifirCBvd-79" style="edgeStyle=orthogonalEdgeStyle;rounded=0;orthogonalLoop=1;jettySize=auto;html=1;entryX=0.5;entryY=0;entryDx=0;entryDy=0;" parent="1" source="GC4DBZCwsw4iifirCBvd-80" target="GC4DBZCwsw4iifirCBvd-82" edge="1">
          <mxGeometry relative="1" as="geometry" />
        </mxCell>
        <mxCell id="GC4DBZCwsw4iifirCBvd-80" value="&amp;nbsp;board[row][x]--;" style="rounded=0;whiteSpace=wrap;html=1;" parent="1" vertex="1">
          <mxGeometry x="610" y="430" width="120" height="20" as="geometry" />
        </mxCell>
        <mxCell id="GC4DBZCwsw4iifirCBvd-81" style="edgeStyle=orthogonalEdgeStyle;rounded=0;orthogonalLoop=1;jettySize=auto;html=1;entryX=0.5;entryY=0;entryDx=0;entryDy=0;" parent="1" source="GC4DBZCwsw4iifirCBvd-82" target="GC4DBZCwsw4iifirCBvd-83" edge="1">
          <mxGeometry relative="1" as="geometry" />
        </mxCell>
        <mxCell id="GC4DBZCwsw4iifirCBvd-82" value="&lt;div&gt;int diagonal = column - row + x;&lt;/div&gt;" style="rounded=0;whiteSpace=wrap;html=1;" parent="1" vertex="1">
          <mxGeometry x="580" y="470" width="180" height="20" as="geometry" />
        </mxCell>
        <mxCell id="GC4DBZCwsw4iifirCBvd-83" value="if (diagonal &amp;gt;= 0 &amp;amp;&amp;amp; diagonal &amp;lt; boardSize)" style="rhombus;whiteSpace=wrap;html=1;" parent="1" vertex="1">
          <mxGeometry x="540" y="530" width="260" height="80" as="geometry" />
        </mxCell>
        <mxCell id="GC4DBZCwsw4iifirCBvd-84" value="" style="endArrow=none;html=1;rounded=0;" parent="1" edge="1">
          <mxGeometry width="50" height="50" relative="1" as="geometry">
            <mxPoint x="510" y="570" as="sourcePoint" />
            <mxPoint x="540" y="569.71" as="targetPoint" />
          </mxGeometry>
        </mxCell>
        <mxCell id="GC4DBZCwsw4iifirCBvd-85" value="" style="endArrow=classic;html=1;rounded=0;" parent="1" edge="1">
          <mxGeometry width="50" height="50" relative="1" as="geometry">
            <mxPoint x="510" y="570" as="sourcePoint" />
            <mxPoint x="510" y="610" as="targetPoint" />
          </mxGeometry>
        </mxCell>
        <mxCell id="GC4DBZCwsw4iifirCBvd-86" value="board[x][diagonal]--;" style="rounded=0;whiteSpace=wrap;html=1;" parent="1" vertex="1">
          <mxGeometry x="450" y="610" width="120" height="20" as="geometry" />
        </mxCell>
        <mxCell id="GC4DBZCwsw4iifirCBvd-87" value="1" style="text;html=1;align=center;verticalAlign=middle;whiteSpace=wrap;rounded=0;" parent="1" vertex="1">
          <mxGeometry x="520" y="540" width="50" height="30" as="geometry" />
        </mxCell>
        <mxCell id="GC4DBZCwsw4iifirCBvd-88" value="" style="endArrow=none;html=1;rounded=0;" parent="1" edge="1">
          <mxGeometry width="50" height="50" relative="1" as="geometry">
            <mxPoint x="510" y="650" as="sourcePoint" />
            <mxPoint x="510" y="630" as="targetPoint" />
          </mxGeometry>
        </mxCell>
        <mxCell id="GC4DBZCwsw4iifirCBvd-89" value="" style="endArrow=none;html=1;rounded=0;" parent="1" edge="1">
          <mxGeometry width="50" height="50" relative="1" as="geometry">
            <mxPoint x="800" y="569.43" as="sourcePoint" />
            <mxPoint x="830" y="569" as="targetPoint" />
          </mxGeometry>
        </mxCell>
        <mxCell id="GC4DBZCwsw4iifirCBvd-90" value="" style="endArrow=none;html=1;rounded=0;" parent="1" edge="1">
          <mxGeometry width="50" height="50" relative="1" as="geometry">
            <mxPoint x="830" y="650" as="sourcePoint" />
            <mxPoint x="830" y="570" as="targetPoint" />
          </mxGeometry>
        </mxCell>
        <mxCell id="GC4DBZCwsw4iifirCBvd-91" value="" style="endArrow=none;html=1;rounded=0;" parent="1" edge="1">
          <mxGeometry width="50" height="50" relative="1" as="geometry">
            <mxPoint x="510" y="650" as="sourcePoint" />
            <mxPoint x="830" y="650" as="targetPoint" />
          </mxGeometry>
        </mxCell>
        <mxCell id="GC4DBZCwsw4iifirCBvd-92" value="0" style="text;html=1;align=center;verticalAlign=middle;whiteSpace=wrap;rounded=0;" parent="1" vertex="1">
          <mxGeometry x="770" y="540" width="60" height="30" as="geometry" />
        </mxCell>
        <mxCell id="GC4DBZCwsw4iifirCBvd-93" value="{" style="text;html=1;align=center;verticalAlign=middle;whiteSpace=wrap;rounded=0;" parent="1" vertex="1">
          <mxGeometry x="490" y="580" width="60" height="30" as="geometry" />
        </mxCell>
        <mxCell id="GC4DBZCwsw4iifirCBvd-94" value="}" style="text;html=1;align=center;verticalAlign=middle;whiteSpace=wrap;rounded=0;" parent="1" vertex="1">
          <mxGeometry x="490" y="620" width="60" height="30" as="geometry" />
        </mxCell>
        <mxCell id="GC4DBZCwsw4iifirCBvd-95" value="" style="endArrow=classic;html=1;rounded=0;" parent="1" edge="1">
          <mxGeometry width="50" height="50" relative="1" as="geometry">
            <mxPoint x="669.71" y="650" as="sourcePoint" />
            <mxPoint x="670" y="690" as="targetPoint" />
          </mxGeometry>
        </mxCell>
        <mxCell id="GC4DBZCwsw4iifirCBvd-96" style="edgeStyle=orthogonalEdgeStyle;rounded=0;orthogonalLoop=1;jettySize=auto;html=1;entryX=0.5;entryY=0;entryDx=0;entryDy=0;" parent="1" source="GC4DBZCwsw4iifirCBvd-97" target="GC4DBZCwsw4iifirCBvd-98" edge="1">
          <mxGeometry relative="1" as="geometry" />
        </mxCell>
        <mxCell id="GC4DBZCwsw4iifirCBvd-97" value="diagonal = column + row - x;" style="rounded=0;whiteSpace=wrap;html=1;" parent="1" vertex="1">
          <mxGeometry x="590" y="690" width="160" height="20" as="geometry" />
        </mxCell>
        <mxCell id="GC4DBZCwsw4iifirCBvd-98" value="if (diagonal &amp;gt;= 0 &amp;amp;&amp;amp; diagonal &amp;lt; boardSize)" style="rhombus;whiteSpace=wrap;html=1;" parent="1" vertex="1">
          <mxGeometry x="539.43" y="740" width="260" height="80" as="geometry" />
        </mxCell>
        <mxCell id="GC4DBZCwsw4iifirCBvd-99" value="" style="endArrow=none;html=1;rounded=0;" parent="1" edge="1">
          <mxGeometry width="50" height="50" relative="1" as="geometry">
            <mxPoint x="509.43" y="780" as="sourcePoint" />
            <mxPoint x="539.43" y="779.71" as="targetPoint" />
          </mxGeometry>
        </mxCell>
        <mxCell id="GC4DBZCwsw4iifirCBvd-100" value="" style="endArrow=classic;html=1;rounded=0;" parent="1" edge="1">
          <mxGeometry width="50" height="50" relative="1" as="geometry">
            <mxPoint x="509.43" y="780" as="sourcePoint" />
            <mxPoint x="509.43" y="820" as="targetPoint" />
          </mxGeometry>
        </mxCell>
        <mxCell id="GC4DBZCwsw4iifirCBvd-101" value="board[x][diagonal]--;" style="rounded=0;whiteSpace=wrap;html=1;" parent="1" vertex="1">
          <mxGeometry x="449.43" y="820" width="120" height="20" as="geometry" />
        </mxCell>
        <mxCell id="GC4DBZCwsw4iifirCBvd-102" value="" style="endArrow=none;html=1;rounded=0;" parent="1" edge="1">
          <mxGeometry width="50" height="50" relative="1" as="geometry">
            <mxPoint x="829.4300000000001" y="860" as="sourcePoint" />
            <mxPoint x="829.4300000000001" y="780" as="targetPoint" />
          </mxGeometry>
        </mxCell>
        <mxCell id="GC4DBZCwsw4iifirCBvd-103" value="" style="endArrow=none;html=1;rounded=0;" parent="1" edge="1">
          <mxGeometry width="50" height="50" relative="1" as="geometry">
            <mxPoint x="509.43" y="860" as="sourcePoint" />
            <mxPoint x="829.4300000000001" y="860" as="targetPoint" />
          </mxGeometry>
        </mxCell>
        <mxCell id="GC4DBZCwsw4iifirCBvd-104" value="" style="endArrow=none;html=1;rounded=0;" parent="1" edge="1">
          <mxGeometry width="50" height="50" relative="1" as="geometry">
            <mxPoint x="509.71000000000004" y="840" as="sourcePoint" />
            <mxPoint x="510" y="860" as="targetPoint" />
          </mxGeometry>
        </mxCell>
        <mxCell id="GC4DBZCwsw4iifirCBvd-105" value="" style="endArrow=none;html=1;rounded=0;" parent="1" edge="1">
          <mxGeometry width="50" height="50" relative="1" as="geometry">
            <mxPoint x="799.4300000000001" y="779.71" as="sourcePoint" />
            <mxPoint x="830" y="780" as="targetPoint" />
          </mxGeometry>
        </mxCell>
        <mxCell id="GC4DBZCwsw4iifirCBvd-106" value="1" style="text;html=1;align=center;verticalAlign=middle;whiteSpace=wrap;rounded=0;" parent="1" vertex="1">
          <mxGeometry x="510" y="750" width="60" height="30" as="geometry" />
        </mxCell>
        <mxCell id="GC4DBZCwsw4iifirCBvd-107" value="{" style="text;html=1;align=center;verticalAlign=middle;whiteSpace=wrap;rounded=0;" parent="1" vertex="1">
          <mxGeometry x="490" y="780" width="60" height="30" as="geometry" />
        </mxCell>
        <mxCell id="GC4DBZCwsw4iifirCBvd-108" value="}" style="text;html=1;align=center;verticalAlign=middle;whiteSpace=wrap;rounded=0;" parent="1" vertex="1">
          <mxGeometry x="490" y="830" width="60" height="30" as="geometry" />
        </mxCell>
        <mxCell id="GC4DBZCwsw4iifirCBvd-109" value="0" style="text;html=1;align=center;verticalAlign=middle;whiteSpace=wrap;rounded=0;" parent="1" vertex="1">
          <mxGeometry x="780" y="750" width="60" height="30" as="geometry" />
        </mxCell>
        <mxCell id="GC4DBZCwsw4iifirCBvd-110" value="" style="endArrow=none;html=1;rounded=0;" parent="1" edge="1">
          <mxGeometry width="50" height="50" relative="1" as="geometry">
            <mxPoint x="670" y="930" as="sourcePoint" />
            <mxPoint x="669.71" y="860" as="targetPoint" />
          </mxGeometry>
        </mxCell>
        <mxCell id="GC4DBZCwsw4iifirCBvd-111" value="}" style="text;html=1;align=center;verticalAlign=middle;whiteSpace=wrap;rounded=0;" parent="1" vertex="1">
          <mxGeometry x="660" y="860" width="60" height="30" as="geometry" />
        </mxCell>
        <mxCell id="GC4DBZCwsw4iifirCBvd-112" value="" style="endArrow=none;html=1;rounded=0;" parent="1" edge="1">
          <mxGeometry width="50" height="50" relative="1" as="geometry">
            <mxPoint x="430" y="930" as="sourcePoint" />
            <mxPoint x="670" y="930" as="targetPoint" />
          </mxGeometry>
        </mxCell>
        <mxCell id="GC4DBZCwsw4iifirCBvd-113" value="" style="endArrow=none;html=1;rounded=0;" parent="1" edge="1">
          <mxGeometry width="50" height="50" relative="1" as="geometry">
            <mxPoint x="430" y="930" as="sourcePoint" />
            <mxPoint x="430" y="340" as="targetPoint" />
          </mxGeometry>
        </mxCell>
        <mxCell id="GC4DBZCwsw4iifirCBvd-114" value="" style="endArrow=classic;html=1;rounded=0;" parent="1" edge="1">
          <mxGeometry width="50" height="50" relative="1" as="geometry">
            <mxPoint x="430" y="340" as="sourcePoint" />
            <mxPoint x="569.43" y="339.71" as="targetPoint" />
          </mxGeometry>
        </mxCell>
        <mxCell id="GC4DBZCwsw4iifirCBvd-115" value="1" style="text;html=1;align=center;verticalAlign=middle;whiteSpace=wrap;rounded=0;" parent="1" vertex="1">
          <mxGeometry x="620" y="355" width="60" height="30" as="geometry" />
        </mxCell>
        <mxCell id="GC4DBZCwsw4iifirCBvd-116" value="{" style="text;html=1;align=center;verticalAlign=middle;whiteSpace=wrap;rounded=0;" parent="1" vertex="1">
          <mxGeometry x="660" y="355" width="60" height="30" as="geometry" />
        </mxCell>
        <mxCell id="GC4DBZCwsw4iifirCBvd-117" value="" style="endArrow=none;html=1;rounded=0;" parent="1" edge="1">
          <mxGeometry width="50" height="50" relative="1" as="geometry">
            <mxPoint x="770" y="339.58" as="sourcePoint" />
            <mxPoint x="870" y="340" as="targetPoint" />
          </mxGeometry>
        </mxCell>
        <mxCell id="GC4DBZCwsw4iifirCBvd-118" value="0" style="text;html=1;align=center;verticalAlign=middle;whiteSpace=wrap;rounded=0;" parent="1" vertex="1">
          <mxGeometry x="740" y="310" width="60" height="30" as="geometry" />
        </mxCell>
        <mxCell id="GC4DBZCwsw4iifirCBvd-119" value="" style="endArrow=classic;html=1;rounded=0;" parent="1" edge="1">
          <mxGeometry width="50" height="50" relative="1" as="geometry">
            <mxPoint x="870" y="340" as="sourcePoint" />
            <mxPoint x="870" y="370" as="targetPoint" />
          </mxGeometry>
        </mxCell>
        <mxCell id="GC4DBZCwsw4iifirCBvd-120" value="board[row][column] = 0;" style="rounded=0;whiteSpace=wrap;html=1;" parent="1" vertex="1">
          <mxGeometry x="800" y="370" width="140" height="20" as="geometry" />
        </mxCell>
        <mxCell id="GC4DBZCwsw4iifirCBvd-121" value="" style="endArrow=classic;html=1;rounded=0;" parent="1" edge="1">
          <mxGeometry width="50" height="50" relative="1" as="geometry">
            <mxPoint x="869.76" y="390" as="sourcePoint" />
            <mxPoint x="870" y="410" as="targetPoint" />
          </mxGeometry>
        </mxCell>
        <mxCell id="GC4DBZCwsw4iifirCBvd-122" value="конец" style="ellipse;whiteSpace=wrap;html=1;" parent="1" vertex="1">
          <mxGeometry x="810" y="410" width="120" height="20" as="geometry" />
        </mxCell>
        <mxCell id="GC4DBZCwsw4iifirCBvd-123" value="}" style="text;html=1;align=center;verticalAlign=middle;whiteSpace=wrap;rounded=0;" parent="1" vertex="1">
          <mxGeometry x="850" y="430" width="60" height="30" as="geometry" />
        </mxCell>
        <mxCell id="GC4DBZCwsw4iifirCBvd-124" value="начало" style="ellipse;whiteSpace=wrap;html=1;" parent="1" vertex="1">
          <mxGeometry x="-59.99999999999999" y="1010" width="120" height="30" as="geometry" />
        </mxCell>
        <mxCell id="GC4DBZCwsw4iifirCBvd-125" value="" style="endArrow=classic;html=1;rounded=0;" parent="1" edge="1">
          <mxGeometry width="50" height="50" relative="1" as="geometry">
            <mxPoint x="-0.18000000000000682" y="1040" as="sourcePoint" />
            <mxPoint y="1160" as="targetPoint" />
          </mxGeometry>
        </mxCell>
        <mxCell id="GC4DBZCwsw4iifirCBvd-126" value="" style="endArrow=none;html=1;rounded=0;" parent="1" edge="1">
          <mxGeometry width="50" height="50" relative="1" as="geometry">
            <mxPoint y="1120" as="sourcePoint" />
            <mxPoint x="80" y="1120" as="targetPoint" />
          </mxGeometry>
        </mxCell>
        <mxCell id="GC4DBZCwsw4iifirCBvd-127" value="&lt;div&gt;bool safeCheck(int *Row, int size)&amp;nbsp;&lt;span style=&quot;background-color: initial;&quot;&gt;{&lt;/span&gt;&lt;/div&gt;&lt;div&gt;&lt;span style=&quot;background-color: initial;&quot;&gt;&lt;div&gt;bool flag = false;&amp;nbsp;&lt;/div&gt;&lt;div&gt;&amp;nbsp; &amp;nbsp; int counter = 0;&amp;nbsp;&lt;/div&gt;&lt;/span&gt;&lt;/div&gt;" style="rounded=0;whiteSpace=wrap;html=1;" parent="1" vertex="1">
          <mxGeometry x="80" y="1090" width="120" height="60" as="geometry" />
        </mxCell>
        <mxCell id="GC4DBZCwsw4iifirCBvd-128" value="while (!flag &amp;amp;&amp;amp; counter &amp;lt; size)" style="rhombus;whiteSpace=wrap;html=1;" parent="1" vertex="1">
          <mxGeometry x="-100" y="1160" width="200" height="80" as="geometry" />
        </mxCell>
        <mxCell id="GC4DBZCwsw4iifirCBvd-133" style="edgeStyle=orthogonalEdgeStyle;rounded=0;orthogonalLoop=1;jettySize=auto;html=1;entryX=0.5;entryY=0;entryDx=0;entryDy=0;" parent="1" source="GC4DBZCwsw4iifirCBvd-129" target="GC4DBZCwsw4iifirCBvd-132" edge="1">
          <mxGeometry relative="1" as="geometry" />
        </mxCell>
        <mxCell id="GC4DBZCwsw4iifirCBvd-129" value="flag = Row[counter] != -1;" style="rounded=0;whiteSpace=wrap;html=1;" parent="1" vertex="1">
          <mxGeometry x="-70" y="1270" width="140" height="20" as="geometry" />
        </mxCell>
        <mxCell id="GC4DBZCwsw4iifirCBvd-131" style="edgeStyle=orthogonalEdgeStyle;rounded=0;orthogonalLoop=1;jettySize=auto;html=1;entryX=0.505;entryY=-0.104;entryDx=0;entryDy=0;entryPerimeter=0;" parent="1" source="GC4DBZCwsw4iifirCBvd-128" target="GC4DBZCwsw4iifirCBvd-129" edge="1">
          <mxGeometry relative="1" as="geometry" />
        </mxCell>
        <mxCell id="GC4DBZCwsw4iifirCBvd-132" value="counter++;" style="rounded=0;whiteSpace=wrap;html=1;" parent="1" vertex="1">
          <mxGeometry x="-59.99999999999999" y="1320" width="120" height="20" as="geometry" />
        </mxCell>
        <mxCell id="GC4DBZCwsw4iifirCBvd-134" value="1" style="text;html=1;align=center;verticalAlign=middle;whiteSpace=wrap;rounded=0;" parent="1" vertex="1">
          <mxGeometry x="-46" y="1240" width="60" height="30" as="geometry" />
        </mxCell>
        <mxCell id="GC4DBZCwsw4iifirCBvd-135" value="{" style="text;html=1;align=center;verticalAlign=middle;whiteSpace=wrap;rounded=0;" parent="1" vertex="1">
          <mxGeometry x="-20" y="1240" width="60" height="30" as="geometry" />
        </mxCell>
        <mxCell id="GC4DBZCwsw4iifirCBvd-136" value="" style="endArrow=none;html=1;rounded=0;" parent="1" edge="1">
          <mxGeometry width="50" height="50" relative="1" as="geometry">
            <mxPoint y="1400" as="sourcePoint" />
            <mxPoint x="-0.18000000000000682" y="1340" as="targetPoint" />
          </mxGeometry>
        </mxCell>
        <mxCell id="GC4DBZCwsw4iifirCBvd-137" value="" style="endArrow=none;html=1;rounded=0;" parent="1" edge="1">
          <mxGeometry width="50" height="50" relative="1" as="geometry">
            <mxPoint x="-120" y="1400" as="sourcePoint" />
            <mxPoint y="1400" as="targetPoint" />
          </mxGeometry>
        </mxCell>
        <mxCell id="GC4DBZCwsw4iifirCBvd-138" value="}" style="text;html=1;align=center;verticalAlign=middle;whiteSpace=wrap;rounded=0;" parent="1" vertex="1">
          <mxGeometry x="-16" y="1350" width="60" height="30" as="geometry" />
        </mxCell>
        <mxCell id="GC4DBZCwsw4iifirCBvd-140" value="" style="endArrow=none;html=1;rounded=0;" parent="1" edge="1">
          <mxGeometry width="50" height="50" relative="1" as="geometry">
            <mxPoint x="-120" y="1400" as="sourcePoint" />
            <mxPoint x="-120" y="1150" as="targetPoint" />
          </mxGeometry>
        </mxCell>
        <mxCell id="GC4DBZCwsw4iifirCBvd-141" value="" style="endArrow=classic;html=1;rounded=0;" parent="1" edge="1">
          <mxGeometry width="50" height="50" relative="1" as="geometry">
            <mxPoint x="-120" y="1150" as="sourcePoint" />
            <mxPoint y="1150" as="targetPoint" />
          </mxGeometry>
        </mxCell>
        <mxCell id="GC4DBZCwsw4iifirCBvd-142" value="" style="endArrow=none;html=1;rounded=0;" parent="1" edge="1">
          <mxGeometry width="50" height="50" relative="1" as="geometry">
            <mxPoint x="100" y="1199.69" as="sourcePoint" />
            <mxPoint x="200" y="1200" as="targetPoint" />
          </mxGeometry>
        </mxCell>
        <mxCell id="GC4DBZCwsw4iifirCBvd-143" value="0" style="text;html=1;align=center;verticalAlign=middle;whiteSpace=wrap;rounded=0;" parent="1" vertex="1">
          <mxGeometry x="70" y="1169" width="60" height="30" as="geometry" />
        </mxCell>
        <mxCell id="GC4DBZCwsw4iifirCBvd-144" value="" style="endArrow=classic;html=1;rounded=0;" parent="1" edge="1">
          <mxGeometry width="50" height="50" relative="1" as="geometry">
            <mxPoint x="200" y="1199" as="sourcePoint" />
            <mxPoint x="200" y="1240" as="targetPoint" />
          </mxGeometry>
        </mxCell>
        <mxCell id="GC4DBZCwsw4iifirCBvd-145" value="return flag;" style="ellipse;whiteSpace=wrap;html=1;" parent="1" vertex="1">
          <mxGeometry x="140" y="1240" width="120" height="20" as="geometry" />
        </mxCell>
        <mxCell id="GC4DBZCwsw4iifirCBvd-146" value="}" style="text;html=1;align=center;verticalAlign=middle;whiteSpace=wrap;rounded=0;" parent="1" vertex="1">
          <mxGeometry x="190" y="1260" width="60" height="30" as="geometry" />
        </mxCell>
        <mxCell id="Om6y30-OiKa_y2BNSwzG-73" style="edgeStyle=orthogonalEdgeStyle;rounded=0;orthogonalLoop=1;jettySize=auto;html=1;entryX=0.5;entryY=0;entryDx=0;entryDy=0;" parent="1" source="Om6y30-OiKa_y2BNSwzG-1" target="Om6y30-OiKa_y2BNSwzG-72" edge="1">
          <mxGeometry relative="1" as="geometry" />
        </mxCell>
        <mxCell id="Om6y30-OiKa_y2BNSwzG-1" value="начало" style="ellipse;whiteSpace=wrap;html=1;" parent="1" vertex="1">
          <mxGeometry x="540" y="1015" width="120" height="25" as="geometry" />
        </mxCell>
        <mxCell id="Om6y30-OiKa_y2BNSwzG-3" value="" style="endArrow=none;html=1;rounded=0;" parent="1" edge="1">
          <mxGeometry width="50" height="50" relative="1" as="geometry">
            <mxPoint x="600" y="1109.71" as="sourcePoint" />
            <mxPoint x="680" y="1109.71" as="targetPoint" />
          </mxGeometry>
        </mxCell>
        <mxCell id="Om6y30-OiKa_y2BNSwzG-4" value="&lt;div&gt;void PrintOutBoard(int** Board, int n)&amp;nbsp;&lt;span style=&quot;background-color: initial;&quot;&gt;{&lt;/span&gt;&lt;/div&gt;" style="rounded=0;whiteSpace=wrap;html=1;" parent="1" vertex="1">
          <mxGeometry x="680" y="1080" width="120" height="60" as="geometry" />
        </mxCell>
        <mxCell id="Om6y30-OiKa_y2BNSwzG-8" style="edgeStyle=orthogonalEdgeStyle;rounded=0;orthogonalLoop=1;jettySize=auto;html=1;entryX=0.5;entryY=0;entryDx=0;entryDy=0;" parent="1" source="Om6y30-OiKa_y2BNSwzG-6" target="Om6y30-OiKa_y2BNSwzG-7" edge="1">
          <mxGeometry relative="1" as="geometry" />
        </mxCell>
        <mxCell id="Om6y30-OiKa_y2BNSwzG-6" value="for (int row = 0; row &amp;lt; n; row++)" style="shape=hexagon;perimeter=hexagonPerimeter2;whiteSpace=wrap;html=1;fixedSize=1;" parent="1" vertex="1">
          <mxGeometry x="520" y="1240" width="161" height="40" as="geometry" />
        </mxCell>
        <mxCell id="Om6y30-OiKa_y2BNSwzG-13" style="edgeStyle=orthogonalEdgeStyle;rounded=0;orthogonalLoop=1;jettySize=auto;html=1;entryX=0.5;entryY=0;entryDx=0;entryDy=0;" parent="1" source="Om6y30-OiKa_y2BNSwzG-7" edge="1">
          <mxGeometry relative="1" as="geometry">
            <mxPoint x="600" y="1380" as="targetPoint" />
          </mxGeometry>
        </mxCell>
        <mxCell id="Om6y30-OiKa_y2BNSwzG-7" value="for (int square = 0; square &amp;lt; n; square++)" style="shape=hexagon;perimeter=hexagonPerimeter2;whiteSpace=wrap;html=1;fixedSize=1;" parent="1" vertex="1">
          <mxGeometry x="495.5" y="1315" width="209" height="30" as="geometry" />
        </mxCell>
        <mxCell id="Om6y30-OiKa_y2BNSwzG-9" value="1" style="text;html=1;align=center;verticalAlign=middle;whiteSpace=wrap;rounded=0;" parent="1" vertex="1">
          <mxGeometry x="580" y="1280" width="20" height="30" as="geometry" />
        </mxCell>
        <mxCell id="Om6y30-OiKa_y2BNSwzG-11" value="{" style="text;html=1;align=center;verticalAlign=middle;whiteSpace=wrap;rounded=0;" parent="1" vertex="1">
          <mxGeometry x="600" y="1280" width="10" height="30" as="geometry" />
        </mxCell>
        <mxCell id="Om6y30-OiKa_y2BNSwzG-19" value="switch (Board[row][square])" style="rhombus;whiteSpace=wrap;html=1;" parent="1" vertex="1">
          <mxGeometry x="515" y="1380" width="169" height="70" as="geometry" />
        </mxCell>
        <mxCell id="Om6y30-OiKa_y2BNSwzG-22" value="" style="endArrow=classic;html=1;rounded=0;" parent="1" edge="1">
          <mxGeometry width="50" height="50" relative="1" as="geometry">
            <mxPoint x="600" y="1480" as="sourcePoint" />
            <mxPoint x="640" y="1480" as="targetPoint" />
          </mxGeometry>
        </mxCell>
        <mxCell id="Om6y30-OiKa_y2BNSwzG-23" value="1" style="text;html=1;align=center;verticalAlign=middle;whiteSpace=wrap;rounded=0;" parent="1" vertex="1">
          <mxGeometry x="580" y="1350" width="20" height="30" as="geometry" />
        </mxCell>
        <mxCell id="Om6y30-OiKa_y2BNSwzG-24" value="{" style="text;html=1;align=center;verticalAlign=middle;whiteSpace=wrap;rounded=0;" parent="1" vertex="1">
          <mxGeometry x="600" y="1350" width="20" height="30" as="geometry" />
        </mxCell>
        <mxCell id="Om6y30-OiKa_y2BNSwzG-27" style="edgeStyle=orthogonalEdgeStyle;rounded=0;orthogonalLoop=1;jettySize=auto;html=1;entryX=0;entryY=0.5;entryDx=0;entryDy=0;" parent="1" source="Om6y30-OiKa_y2BNSwzG-25" target="Om6y30-OiKa_y2BNSwzG-26" edge="1">
          <mxGeometry relative="1" as="geometry" />
        </mxCell>
        <mxCell id="Om6y30-OiKa_y2BNSwzG-25" value="case -1:" style="rounded=0;whiteSpace=wrap;html=1;" parent="1" vertex="1">
          <mxGeometry x="640" y="1470" width="50" height="20" as="geometry" />
        </mxCell>
        <mxCell id="Om6y30-OiKa_y2BNSwzG-29" style="edgeStyle=orthogonalEdgeStyle;rounded=0;orthogonalLoop=1;jettySize=auto;html=1;entryX=0;entryY=0.5;entryDx=0;entryDy=0;" parent="1" source="Om6y30-OiKa_y2BNSwzG-26" target="Om6y30-OiKa_y2BNSwzG-28" edge="1">
          <mxGeometry relative="1" as="geometry" />
        </mxCell>
        <mxCell id="Om6y30-OiKa_y2BNSwzG-26" value="cout &amp;lt;&amp;lt; &quot;!&quot; &amp;lt;&amp;lt; &quot; &quot;;" style="shape=parallelogram;perimeter=parallelogramPerimeter;whiteSpace=wrap;html=1;fixedSize=1;" parent="1" vertex="1">
          <mxGeometry x="720" y="1470" width="120" height="20" as="geometry" />
        </mxCell>
        <mxCell id="Om6y30-OiKa_y2BNSwzG-28" value="break;" style="rounded=0;whiteSpace=wrap;html=1;" parent="1" vertex="1">
          <mxGeometry x="870" y="1470" width="40" height="20" as="geometry" />
        </mxCell>
        <mxCell id="Om6y30-OiKa_y2BNSwzG-30" value="" style="endArrow=classic;html=1;rounded=0;" parent="1" edge="1">
          <mxGeometry width="50" height="50" relative="1" as="geometry">
            <mxPoint x="600" y="1520" as="sourcePoint" />
            <mxPoint x="640" y="1520" as="targetPoint" />
          </mxGeometry>
        </mxCell>
        <mxCell id="Om6y30-OiKa_y2BNSwzG-31" style="edgeStyle=orthogonalEdgeStyle;rounded=0;orthogonalLoop=1;jettySize=auto;html=1;entryX=0;entryY=0.5;entryDx=0;entryDy=0;" parent="1" source="Om6y30-OiKa_y2BNSwzG-32" target="Om6y30-OiKa_y2BNSwzG-34" edge="1">
          <mxGeometry relative="1" as="geometry" />
        </mxCell>
        <mxCell id="Om6y30-OiKa_y2BNSwzG-32" value="case 0:" style="rounded=0;whiteSpace=wrap;html=1;" parent="1" vertex="1">
          <mxGeometry x="640" y="1510" width="50" height="20" as="geometry" />
        </mxCell>
        <mxCell id="Om6y30-OiKa_y2BNSwzG-33" style="edgeStyle=orthogonalEdgeStyle;rounded=0;orthogonalLoop=1;jettySize=auto;html=1;entryX=0;entryY=0.5;entryDx=0;entryDy=0;" parent="1" source="Om6y30-OiKa_y2BNSwzG-34" target="Om6y30-OiKa_y2BNSwzG-35" edge="1">
          <mxGeometry relative="1" as="geometry" />
        </mxCell>
        <mxCell id="Om6y30-OiKa_y2BNSwzG-34" value="cout &amp;lt;&amp;lt; &quot;o&quot; &amp;lt;&amp;lt; &quot; &quot;;" style="shape=parallelogram;perimeter=parallelogramPerimeter;whiteSpace=wrap;html=1;fixedSize=1;" parent="1" vertex="1">
          <mxGeometry x="720" y="1510" width="120" height="20" as="geometry" />
        </mxCell>
        <mxCell id="Om6y30-OiKa_y2BNSwzG-35" value="break;" style="rounded=0;whiteSpace=wrap;html=1;" parent="1" vertex="1">
          <mxGeometry x="870" y="1510" width="40" height="20" as="geometry" />
        </mxCell>
        <mxCell id="Om6y30-OiKa_y2BNSwzG-36" value="" style="endArrow=classic;html=1;rounded=0;" parent="1" edge="1">
          <mxGeometry width="50" height="50" relative="1" as="geometry">
            <mxPoint x="600" y="1560" as="sourcePoint" />
            <mxPoint x="640" y="1560" as="targetPoint" />
          </mxGeometry>
        </mxCell>
        <mxCell id="Om6y30-OiKa_y2BNSwzG-37" style="edgeStyle=orthogonalEdgeStyle;rounded=0;orthogonalLoop=1;jettySize=auto;html=1;entryX=0;entryY=0.5;entryDx=0;entryDy=0;" parent="1" source="Om6y30-OiKa_y2BNSwzG-38" target="Om6y30-OiKa_y2BNSwzG-40" edge="1">
          <mxGeometry relative="1" as="geometry" />
        </mxCell>
        <mxCell id="Om6y30-OiKa_y2BNSwzG-38" value="default:" style="rounded=0;whiteSpace=wrap;html=1;" parent="1" vertex="1">
          <mxGeometry x="640" y="1550" width="50" height="20" as="geometry" />
        </mxCell>
        <mxCell id="Om6y30-OiKa_y2BNSwzG-39" style="edgeStyle=orthogonalEdgeStyle;rounded=0;orthogonalLoop=1;jettySize=auto;html=1;entryX=0;entryY=0.5;entryDx=0;entryDy=0;" parent="1" source="Om6y30-OiKa_y2BNSwzG-40" target="Om6y30-OiKa_y2BNSwzG-41" edge="1">
          <mxGeometry relative="1" as="geometry" />
        </mxCell>
        <mxCell id="Om6y30-OiKa_y2BNSwzG-40" value="cout &amp;lt;&amp;lt; &quot;x&quot; &amp;lt;&amp;lt; &quot; &quot;;" style="shape=parallelogram;perimeter=parallelogramPerimeter;whiteSpace=wrap;html=1;fixedSize=1;" parent="1" vertex="1">
          <mxGeometry x="720" y="1550" width="120" height="20" as="geometry" />
        </mxCell>
        <mxCell id="Om6y30-OiKa_y2BNSwzG-41" value="break;" style="rounded=0;whiteSpace=wrap;html=1;" parent="1" vertex="1">
          <mxGeometry x="870" y="1550" width="40" height="20" as="geometry" />
        </mxCell>
        <mxCell id="Om6y30-OiKa_y2BNSwzG-42" value="{" style="text;html=1;align=center;verticalAlign=middle;whiteSpace=wrap;rounded=0;" parent="1" vertex="1">
          <mxGeometry x="600" y="1450" width="10" height="30" as="geometry" />
        </mxCell>
        <mxCell id="Om6y30-OiKa_y2BNSwzG-43" value="" style="endArrow=none;html=1;rounded=0;" parent="1" edge="1">
          <mxGeometry width="50" height="50" relative="1" as="geometry">
            <mxPoint x="910" y="1480" as="sourcePoint" />
            <mxPoint x="960" y="1480" as="targetPoint" />
          </mxGeometry>
        </mxCell>
        <mxCell id="Om6y30-OiKa_y2BNSwzG-44" value="" style="endArrow=none;html=1;rounded=0;" parent="1" edge="1">
          <mxGeometry width="50" height="50" relative="1" as="geometry">
            <mxPoint x="960" y="1560" as="sourcePoint" />
            <mxPoint x="960" y="1480" as="targetPoint" />
          </mxGeometry>
        </mxCell>
        <mxCell id="Om6y30-OiKa_y2BNSwzG-45" value="" style="endArrow=none;html=1;rounded=0;" parent="1" edge="1">
          <mxGeometry width="50" height="50" relative="1" as="geometry">
            <mxPoint x="910" y="1519.76" as="sourcePoint" />
            <mxPoint x="960" y="1519.76" as="targetPoint" />
          </mxGeometry>
        </mxCell>
        <mxCell id="Om6y30-OiKa_y2BNSwzG-46" value="" style="endArrow=none;html=1;rounded=0;" parent="1" edge="1">
          <mxGeometry width="50" height="50" relative="1" as="geometry">
            <mxPoint x="910" y="1559.76" as="sourcePoint" />
            <mxPoint x="960" y="1559.76" as="targetPoint" />
          </mxGeometry>
        </mxCell>
        <mxCell id="Om6y30-OiKa_y2BNSwzG-47" value="}" style="text;html=1;align=center;verticalAlign=middle;whiteSpace=wrap;rounded=0;" parent="1" vertex="1">
          <mxGeometry x="930" y="1570" width="17" height="20" as="geometry" />
        </mxCell>
        <mxCell id="Om6y30-OiKa_y2BNSwzG-50" value="" style="endArrow=none;html=1;rounded=0;entryX=0.5;entryY=1;entryDx=0;entryDy=0;" parent="1" target="Om6y30-OiKa_y2BNSwzG-19" edge="1">
          <mxGeometry width="50" height="50" relative="1" as="geometry">
            <mxPoint x="599" y="1640" as="sourcePoint" />
            <mxPoint x="590" y="1460" as="targetPoint" />
          </mxGeometry>
        </mxCell>
        <mxCell id="Om6y30-OiKa_y2BNSwzG-51" value="" style="endArrow=none;html=1;rounded=0;" parent="1" edge="1">
          <mxGeometry width="50" height="50" relative="1" as="geometry">
            <mxPoint x="480" y="1640" as="sourcePoint" />
            <mxPoint x="600" y="1640" as="targetPoint" />
          </mxGeometry>
        </mxCell>
        <mxCell id="Om6y30-OiKa_y2BNSwzG-52" value="" style="endArrow=none;html=1;rounded=0;" parent="1" edge="1">
          <mxGeometry width="50" height="50" relative="1" as="geometry">
            <mxPoint x="480" y="1640" as="sourcePoint" />
            <mxPoint x="480" y="1330" as="targetPoint" />
          </mxGeometry>
        </mxCell>
        <mxCell id="Om6y30-OiKa_y2BNSwzG-53" value="" style="endArrow=classic;html=1;rounded=0;" parent="1" edge="1">
          <mxGeometry width="50" height="50" relative="1" as="geometry">
            <mxPoint x="480" y="1330.15" as="sourcePoint" />
            <mxPoint x="495.5" y="1329.8600000000001" as="targetPoint" />
          </mxGeometry>
        </mxCell>
        <mxCell id="Om6y30-OiKa_y2BNSwzG-54" value="}" style="text;html=1;align=center;verticalAlign=middle;whiteSpace=wrap;rounded=0;" parent="1" vertex="1">
          <mxGeometry x="600" y="1580" width="20" height="30" as="geometry" />
        </mxCell>
        <mxCell id="Om6y30-OiKa_y2BNSwzG-56" value="" style="endArrow=none;html=1;rounded=0;" parent="1" edge="1">
          <mxGeometry width="50" height="50" relative="1" as="geometry">
            <mxPoint x="705" y="1330" as="sourcePoint" />
            <mxPoint x="1000" y="1330" as="targetPoint" />
          </mxGeometry>
        </mxCell>
        <mxCell id="Om6y30-OiKa_y2BNSwzG-58" value="0" style="text;html=1;align=center;verticalAlign=middle;whiteSpace=wrap;rounded=0;" parent="1" vertex="1">
          <mxGeometry x="704.5" y="1300" width="20" height="30" as="geometry" />
        </mxCell>
        <mxCell id="Om6y30-OiKa_y2BNSwzG-59" value="" style="endArrow=none;html=1;rounded=0;" parent="1" edge="1">
          <mxGeometry width="50" height="50" relative="1" as="geometry">
            <mxPoint x="440" y="1680" as="sourcePoint" />
            <mxPoint x="1000" y="1680" as="targetPoint" />
          </mxGeometry>
        </mxCell>
        <mxCell id="Om6y30-OiKa_y2BNSwzG-60" value="" style="endArrow=none;html=1;rounded=0;" parent="1" edge="1">
          <mxGeometry width="50" height="50" relative="1" as="geometry">
            <mxPoint x="440" y="1680" as="sourcePoint" />
            <mxPoint x="440" y="1260" as="targetPoint" />
          </mxGeometry>
        </mxCell>
        <mxCell id="Om6y30-OiKa_y2BNSwzG-61" value="" style="endArrow=classic;html=1;rounded=0;entryX=0;entryY=0.5;entryDx=0;entryDy=0;" parent="1" target="Om6y30-OiKa_y2BNSwzG-6" edge="1">
          <mxGeometry width="50" height="50" relative="1" as="geometry">
            <mxPoint x="440" y="1260" as="sourcePoint" />
            <mxPoint x="490" y="1210" as="targetPoint" />
          </mxGeometry>
        </mxCell>
        <mxCell id="Om6y30-OiKa_y2BNSwzG-62" value="" style="endArrow=none;html=1;rounded=0;" parent="1" edge="1">
          <mxGeometry width="50" height="50" relative="1" as="geometry">
            <mxPoint x="680" y="1260" as="sourcePoint" />
            <mxPoint x="1080" y="1260" as="targetPoint" />
          </mxGeometry>
        </mxCell>
        <mxCell id="Om6y30-OiKa_y2BNSwzG-63" value="0" style="text;html=1;align=center;verticalAlign=middle;whiteSpace=wrap;rounded=0;" parent="1" vertex="1">
          <mxGeometry x="680" y="1230" width="20" height="30" as="geometry" />
        </mxCell>
        <mxCell id="Om6y30-OiKa_y2BNSwzG-64" value="" style="endArrow=classic;html=1;rounded=0;" parent="1" edge="1">
          <mxGeometry width="50" height="50" relative="1" as="geometry">
            <mxPoint x="1080" y="1260" as="sourcePoint" />
            <mxPoint x="1080" y="1320" as="targetPoint" />
          </mxGeometry>
        </mxCell>
        <mxCell id="Om6y30-OiKa_y2BNSwzG-65" value="конец" style="ellipse;whiteSpace=wrap;html=1;" parent="1" vertex="1">
          <mxGeometry x="1020" y="1320" width="120" height="30" as="geometry" />
        </mxCell>
        <mxCell id="Om6y30-OiKa_y2BNSwzG-67" value="cout &amp;lt;&amp;lt; endl;" style="shape=parallelogram;perimeter=parallelogramPerimeter;whiteSpace=wrap;html=1;fixedSize=1;" parent="1" vertex="1">
          <mxGeometry x="940" y="1370" width="120" height="20" as="geometry" />
        </mxCell>
        <mxCell id="Om6y30-OiKa_y2BNSwzG-68" value="" style="endArrow=classic;html=1;rounded=0;" parent="1" edge="1">
          <mxGeometry width="50" height="50" relative="1" as="geometry">
            <mxPoint x="999.66" y="1330" as="sourcePoint" />
            <mxPoint x="1000" y="1370" as="targetPoint" />
          </mxGeometry>
        </mxCell>
        <mxCell id="Om6y30-OiKa_y2BNSwzG-69" value="" style="endArrow=none;html=1;rounded=0;entryX=0.5;entryY=1;entryDx=0;entryDy=0;" parent="1" target="Om6y30-OiKa_y2BNSwzG-67" edge="1">
          <mxGeometry width="50" height="50" relative="1" as="geometry">
            <mxPoint x="1000" y="1680" as="sourcePoint" />
            <mxPoint x="1050" y="1630" as="targetPoint" />
          </mxGeometry>
        </mxCell>
        <mxCell id="Om6y30-OiKa_y2BNSwzG-70" value="}" style="text;html=1;align=center;verticalAlign=middle;whiteSpace=wrap;rounded=0;" parent="1" vertex="1">
          <mxGeometry x="1000" y="1400" width="20" height="30" as="geometry" />
        </mxCell>
        <mxCell id="Om6y30-OiKa_y2BNSwzG-71" value="}" style="text;html=1;align=center;verticalAlign=middle;whiteSpace=wrap;rounded=0;" parent="1" vertex="1">
          <mxGeometry x="1080" y="1350" width="20" height="30" as="geometry" />
        </mxCell>
        <mxCell id="Om6y30-OiKa_y2BNSwzG-74" style="edgeStyle=orthogonalEdgeStyle;rounded=0;orthogonalLoop=1;jettySize=auto;html=1;entryX=0.5;entryY=0;entryDx=0;entryDy=0;" parent="1" source="Om6y30-OiKa_y2BNSwzG-72" target="Om6y30-OiKa_y2BNSwzG-6" edge="1">
          <mxGeometry relative="1" as="geometry" />
        </mxCell>
        <mxCell id="Om6y30-OiKa_y2BNSwzG-72" value="cout &amp;lt;&amp;lt; &quot;Доска на данный момент (! - королевы, x - места, которые они бьют, o - свободнные клетки): &quot; &amp;lt;&amp;lt; endl;" style="shape=parallelogram;perimeter=parallelogramPerimeter;whiteSpace=wrap;html=1;fixedSize=1;" parent="1" vertex="1">
          <mxGeometry x="514.5" y="1150" width="171" height="60" as="geometry" />
        </mxCell>
      </root>
    </mxGraphModel>
  </diagram>
</mxfile>
